<svg width="131" height="131" viewBox="0 0 131 131" fill="none" xmlns="http://www.w3.org/2000/svg">
<circle cx="65.5" cy="65.5" r="64" stroke="#6579C9" stroke-width="3"/>
<path d="M49.9918 73.1179V66.2118C49.9918 63.8292 48.0581 61.8955 45.6755 61.8955H33.5898C32.174 61.8955 31 63.0695 31 64.4853V74.8445C31 76.2602 32.174 77.4342 33.5898 77.4342H45.6755C48.0581 77.4342 49.9918 75.5005 49.9918 73.1179Z" fill="#6579C9"/>
<path d="M67.084 37.2405C63.3892 35.1341 58.6931 35.7556 55.6544 38.7598L51.5107 42.9035H77.0288L67.084 37.2405Z" fill="#6579C9"/>
<path d="M88.8386 48.083H43.9489C39.0111 48.083 34.971 51.8814 34.5566 56.7156H45.6755C50.9241 56.7156 55.1714 60.9629 55.1714 66.2115V73.1176C55.1714 78.3663 50.9241 82.6135 45.6755 82.6135H34.5566C35.0055 87.4478 39.0111 91.2462 43.9489 91.2462H88.8386C94.0873 91.2462 98.3345 86.9989 98.3345 81.7503V57.5789C98.3345 52.3303 94.0873 48.083 88.8386 48.083Z" fill="#6579C9"/>
</svg>
