<svg width="131" height="131" viewBox="0 0 131 131" fill="none" xmlns="http://www.w3.org/2000/svg">
<circle cx="65.5" cy="65.5" r="64" stroke="#6579C9" stroke-width="3"/>
<path d="M73.8988 79.5501C76.4911 79.5501 78.5925 77.4486 78.5925 74.8563C78.5925 72.2641 76.4911 70.1626 73.8988 70.1626C71.3065 70.1626 69.2051 72.2641 69.2051 74.8563C69.2051 77.4486 71.3065 79.5501 73.8988 79.5501Z" fill="#6579C9"/>
<path d="M92.6729 57.02H55.1231C49.4155 57.02 44.7969 61.6387 44.7969 67.3462V82.3662C44.7969 88.0737 49.4155 92.6924 55.1231 92.6924H92.6729C98.3805 92.6924 102.999 88.0737 102.999 82.3662V67.3462C102.999 61.6387 98.3805 57.02 92.6729 57.02ZM55.1982 70.1625C53.6586 70.1625 52.3819 68.8858 52.3819 67.3462C52.3819 65.8067 53.6211 64.53 55.1606 64.53H55.1982C56.7377 64.53 58.0144 65.8067 58.0144 67.3462C58.0144 68.8858 56.7377 70.1625 55.1982 70.1625ZM73.898 85.1824C68.1904 85.1824 63.5718 80.5638 63.5718 74.8562C63.5718 69.1486 68.1904 64.53 73.898 64.53C79.6056 64.53 84.2242 69.1486 84.2242 74.8562C84.2242 80.5638 79.6056 85.1824 73.898 85.1824ZM92.748 85.1824C91.2085 85.1824 89.9318 83.9057 89.9318 82.3662C89.9318 80.8266 91.1709 79.5499 92.748 79.5499C94.3251 79.5499 95.5643 80.8266 95.5643 82.3662C95.5643 83.9057 94.3251 85.1824 92.748 85.1824Z" fill="#6579C9"/>
<path d="M87.867 51.3875C87.3788 46.1305 83.023 42 77.6534 42H40.1036C34.396 42 29.7773 46.6186 29.7773 52.3262V67.3461C29.7773 72.7158 33.9078 77.1091 39.1648 77.5597V67.3461C39.1648 58.5595 46.3368 51.3875 55.1235 51.3875H87.867Z" fill="#6579C9"/>
</svg>
