<svg width="131" height="131" viewBox="0 0 131 131" fill="none" xmlns="http://www.w3.org/2000/svg">
<circle cx="65.5" cy="65.5" r="64" stroke="#6579C9" stroke-width="3"/>
<path d="M94.7062 92.9998H36.2938C35.0338 92.9998 34 91.966 34 90.706C34 89.446 35.0338 88.4121 36.2938 88.4121H94.6738C95.9338 88.4121 96.9677 89.446 96.9677 90.706C96.9677 91.966 95.9338 92.9998 94.6738 92.9998H94.7062Z" fill="#6579C9"/>
<path d="M46.0186 43.5371H41.0756C37.3464 43.5371 34.3232 46.5602 34.3232 50.2894V77.3633C34.3232 81.0925 37.3464 84.1156 41.0756 84.1156H46.0186C49.7478 84.1156 52.7709 81.0925 52.7709 77.3633V50.2894C52.7709 46.5602 49.7478 43.5371 46.0186 43.5371Z" fill="#6579C9"/>
<path d="M68.1173 37.3662H63.1742C59.445 37.3662 56.4219 40.3893 56.4219 44.1185V77.3308C56.4219 81.06 59.445 84.0831 63.1742 84.0831H68.1173C71.8465 84.0831 74.8696 81.06 74.8696 77.3308V44.1185C74.8696 40.3893 71.8465 37.3662 68.1173 37.3662Z" fill="#6579C9"/>
<path d="M90.2481 30H85.305C81.5758 30 78.5527 33.0231 78.5527 36.7523V77.3308C78.5527 81.06 81.5758 84.0831 85.305 84.0831H90.2481C93.9773 84.0831 97.0004 81.06 97.0004 77.3308V36.7523C97.0004 33.0231 93.9773 30 90.2481 30Z" fill="#6579C9"/>
</svg>
