<svg width="131" height="131" viewBox="0 0 131 131" fill="none" xmlns="http://www.w3.org/2000/svg">
<circle cx="65.5" cy="65.5" r="64" stroke="#6579C9" stroke-width="3"/>
<path d="M61.3574 65.2501C61.3574 68.9287 63.1074 72.2144 65.8217 74.3216C68.536 72.1787 70.286 68.9287 70.286 65.2501C70.286 61.5716 68.536 58.2859 65.8217 56.1787C63.1074 58.3216 61.3574 61.5716 61.3574 65.2501Z" fill="#6579C9"/>
<path d="M72.964 53.6431C72.3212 53.6431 71.7497 53.7145 71.1426 53.8216C73.9283 56.8574 75.6426 60.8216 75.6426 65.2502C75.6426 69.6788 73.8926 73.6431 71.1426 76.6788C71.7497 76.7859 72.3569 76.8574 72.964 76.8574C79.3569 76.8574 84.5712 71.6431 84.5712 65.2502C84.5712 58.8574 79.3569 53.6431 72.964 53.6431Z" fill="#6579C9"/>
<path d="M55.9999 65.2502C55.9999 60.8216 57.7499 56.8574 60.4999 53.8216C59.8927 53.7145 59.2856 53.6431 58.6784 53.6431C52.2856 53.6431 47.0713 58.8574 47.0713 65.2502C47.0713 71.6431 52.2856 76.8574 58.6784 76.8574C59.3213 76.8574 59.8927 76.7859 60.4999 76.6788C57.7141 73.6431 55.9999 69.6788 55.9999 65.2502Z" fill="#6579C9"/>
<path d="M80.1071 34H51.5357C40.2143 34 31 43.2143 31 54.5357V75.9643C31 87.2857 40.2143 96.5 51.5357 96.5H80.1071C91.4286 96.5 100.643 87.2857 100.643 75.9643V54.5357C100.643 43.2143 91.4286 34 80.1071 34ZM72.9643 82.2143C70.3929 82.2143 68 81.6071 65.8214 80.5714C63.6429 81.6071 61.25 82.2143 58.6786 82.2143C49.3214 82.2143 41.7143 74.6071 41.7143 65.25C41.7143 55.8929 49.3214 48.2857 58.6786 48.2857C61.25 48.2857 63.6429 48.8929 65.8214 49.9286C68 48.8929 70.3929 48.2857 72.9643 48.2857C82.3214 48.2857 89.9286 55.8929 89.9286 65.25C89.9286 74.6071 82.3214 82.2143 72.9643 82.2143Z" fill="#6579C9"/>
</svg>
