<svg width="35" height="35" viewBox="0 0 35 35" fill="none" xmlns="http://www.w3.org/2000/svg">
<path d="M9.59091 15.5263C11.41 15.5263 12.8864 17 12.8864 18.8158C12.8864 20.6316 11.41 22.1053 9.59091 22.1053C7.77182 22.1053 6.29545 20.6316 6.29545 18.8158C6.29545 17 7.77182 15.5263 9.59091 15.5263ZM9.59091 23.4211C5.95273 23.4211 3 26.3684 3 30H16.1818C16.1818 26.3684 13.2291 23.4211 9.59091 23.4211ZM25.4091 22.1053C27.2282 22.1053 28.7045 20.6316 28.7045 18.8158C28.7045 17 27.2282 15.5263 25.4091 15.5263C23.59 15.5263 22.1136 17 22.1136 18.8158C22.1136 20.6316 23.59 22.1053 25.4091 22.1053ZM25.4091 23.4211C21.7709 23.4211 18.8182 26.3684 18.8182 30H32C32 26.3684 29.0473 23.4211 25.4091 23.4211ZM17.5 18.1579C18.225 18.1579 18.8182 17.5658 18.8182 16.8421V12.8947H22.7727C23.4977 12.8947 24.0909 12.3026 24.0909 11.5789C24.0909 10.8553 23.4977 10.2632 22.7727 10.2632H18.8182V6.31579C18.8182 5.59211 18.225 5 17.5 5C16.775 5 16.1818 5.59211 16.1818 6.31579V10.2632H12.2273C11.5023 10.2632 10.9091 10.8553 10.9091 11.5789C10.9091 12.3026 11.5023 12.8947 12.2273 12.8947H16.1818V16.8421C16.1818 17.5658 16.775 18.1579 17.5 18.1579Z" fill="#FF7E00"/>
</svg>
