<svg width="35" height="35" viewBox="0 0 35 35" fill="none" xmlns="http://www.w3.org/2000/svg">
<path d="M10.7917 6C10.5375 6.00003 10.2938 6.101 10.1141 6.28072C9.93437 6.46043 9.83339 6.70418 9.83337 6.95833V11.75L3.95833 11.7497C3.42933 11.7497 3 12.179 3 12.708V28.0414C3 28.5704 3.42933 28.9997 3.95833 28.9997L24.2718 29C24.8008 29 25.2301 28.5707 25.2301 28.0417C25.2301 28.0417 25.2301 13.0702 25.2301 12.7083C25.2301 12.3465 25.021 12.0422 24.7248 11.8792L24.7304 11.8679L21 9.83333C21 9.83333 27.0661 9.83333 28.125 9.83333C29.184 9.83333 30.0417 10.691 30.0417 11.75V12.7083V21.3333C30.0399 21.4603 30.0633 21.5864 30.1107 21.7042C30.158 21.8221 30.2283 21.9294 30.3175 22.0198C30.4067 22.1102 30.5129 22.182 30.6301 22.2311C30.7473 22.2801 30.873 22.3053 31 22.3053C31.127 22.3053 31.2527 22.2801 31.3699 22.2311C31.4871 22.182 31.5933 22.1102 31.6825 22.0198C31.7717 21.9294 31.842 21.8221 31.8893 21.7042C31.9367 21.5864 31.9601 21.4603 31.9583 21.3333V6.95833C31.9583 6.70418 31.8573 6.46043 31.6776 6.28072C31.4979 6.101 31 6 31 6H10.7917ZM11.75 8.57178L20.5152 11.75H11.75V8.57178ZM7.79165 16.5414L20.4385 16.5417C20.9675 16.5417 21.3968 16.971 21.3968 17.5V19.4167C21.3968 19.9457 20.9675 20.375 20.4385 20.375L7.79165 20.3747C7.26265 20.3747 6.83332 19.9454 6.83332 19.4164V17.4997C6.83332 16.9707 7.26265 16.5414 7.79165 16.5414ZM7.79165 22.2914L20.4385 22.2917C20.9675 22.2917 21.3968 22.721 21.3968 23.25C21.3968 23.779 20.9675 24.2083 20.4385 24.2083L7.79165 24.208C7.26265 24.208 6.83332 23.7787 6.83332 23.2497C6.83332 22.7207 7.26265 22.2914 7.79165 22.2914Z" fill="#FF7E00"/>
</svg>
