<svg width="35" height="35" viewBox="0 0 35 35" fill="none" xmlns="http://www.w3.org/2000/svg">
<path d="M6.34615 6C6.05034 6.00003 5.76666 6.1212 5.55749 6.33686C5.34832 6.55252 5.2308 6.84501 5.23077 7.15V8.3H4.11538C3.49969 8.3 3 8.8152 3 9.45V27.85C3 28.4848 3.49969 29 4.11538 29H30.8846C31.5003 29 32 28.4848 32 27.85V9.45C32 8.8152 31.5003 8.3 30.8846 8.3H29.7692V7.15C29.7692 6.84501 29.6517 6.55252 29.4425 6.33686C29.2333 6.1212 28.9497 6.00003 28.6538 6C23.1187 6 18.1024 8.00179 17.5 8.24609C16.8976 8.00179 11.8812 6 6.34615 6ZM7.46154 8.39883C12.3614 8.67188 17.0861 10.5169 17.0861 10.5169C17.3518 10.6264 17.6482 10.6264 17.9139 10.5169C17.9139 10.5169 22.6386 8.67188 27.5385 8.39883V24.4966C22.4267 24.7508 18.0608 26.4187 17.5 26.6461C16.9392 26.4187 12.5733 24.7508 7.46154 24.4966V8.39883ZM17.4826 12.3093C17.1871 12.314 16.9056 12.4395 16.6998 12.658C16.4939 12.8766 16.3806 13.1704 16.3846 13.475V15.2C16.3825 15.3524 16.4098 15.5037 16.4649 15.6451C16.5201 15.7865 16.6019 15.9152 16.7057 16.0237C16.8094 16.1323 16.9331 16.2184 17.0695 16.2773C17.2058 16.3361 17.3522 16.3664 17.5 16.3664C17.6478 16.3664 17.7942 16.3361 17.9305 16.2773C18.0669 16.2184 18.1906 16.1323 18.2943 16.0237C18.3981 15.9152 18.4799 15.7865 18.5351 15.6451C18.5902 15.5037 18.6175 15.3524 18.6154 15.2V13.475C18.6174 13.3211 18.5895 13.1684 18.5333 13.0259C18.477 12.8834 18.3936 12.7539 18.288 12.6452C18.1824 12.5365 18.0567 12.4508 17.9183 12.3931C17.78 12.3354 17.6318 12.3069 17.4826 12.3093ZM17.4826 19.2093C17.1871 19.214 16.9056 19.3395 16.6998 19.558C16.4939 19.7766 16.3806 20.0704 16.3846 20.375V22.1C16.3825 22.2524 16.4098 22.4037 16.4649 22.5451C16.5201 22.6865 16.6019 22.8152 16.7057 22.9237C16.8094 23.0323 16.9331 23.1185 17.0695 23.1773C17.2058 23.2361 17.3522 23.2664 17.5 23.2664C17.6478 23.2664 17.7942 23.2361 17.9305 23.1773C18.0669 23.1185 18.1906 23.0323 18.2943 22.9237C18.3981 22.8152 18.4799 22.6865 18.5351 22.5451C18.5902 22.4037 18.6175 22.2524 18.6154 22.1V20.375C18.6174 20.2211 18.5895 20.0684 18.5333 19.9259C18.477 19.7834 18.3936 19.6539 18.288 19.5452C18.1824 19.4365 18.0567 19.3508 17.9183 19.2931C17.78 19.2354 17.6318 19.2069 17.4826 19.2093Z" fill="#FF7E00"/>
</svg>
