<svg width="35" height="35" viewBox="0 0 35 35" fill="none" xmlns="http://www.w3.org/2000/svg">
<path d="M16.865 6.52874V14.2005C15.5702 14.405 14.5648 15.4875 14.4569 16.8293H9.34639C7.55135 16.8293 6.08492 18.3207 6.08492 20.1464V23.8775H5.02064C3.90242 23.8775 3 24.8003 3 25.9326V26.7257C3 27.863 3.90733 28.7809 5.02064 28.7809H8.13008C9.2483 28.7809 10.1507 27.8581 10.1507 26.7257V25.9326C10.1507 24.7953 9.2434 23.8775 8.13008 23.8775H7.12957V20.1364C7.12957 18.8944 8.11537 17.8917 9.33658 17.8917H14.5648C14.8737 18.9492 15.7565 19.7523 16.8404 19.9319L16.8257 23.8775H15.7516C14.6334 23.8775 13.731 24.8003 13.731 25.9326V26.7208C13.731 27.8581 14.6383 28.7759 15.7516 28.7759H18.866C19.9842 28.7759 20.8866 27.8531 20.8866 26.7208V25.9276C20.8866 24.7903 19.9793 23.8725 18.866 23.8725H17.8753L17.89 19.9069C18.9199 19.6875 19.7488 18.9043 20.0431 17.8867H25.3644C26.5807 17.8867 27.5763 18.8993 27.5763 20.1364V23.8675H26.8652C25.747 23.8675 24.8445 24.7903 24.8445 25.9226V26.7158C24.8445 27.8531 25.7519 28.7709 26.8652 28.7709H29.9746C31.0928 28.7709 31.9953 27.8481 31.9953 26.7158V25.9226C31.9953 24.7854 31.0879 23.8675 29.9746 23.8675H28.621V20.1264C28.621 18.3008 27.1644 16.8193 25.3693 16.8193H20.1461C20.0431 15.5373 19.1161 14.4848 17.9047 14.2205V6.53373C17.9096 6.23943 17.6742 6 17.3848 6C17.0955 6 16.865 6.23943 16.865 6.52874Z" fill="#FF7E00"/>
</svg>
