<svg width="35" height="35" viewBox="0 0 35 35" fill="none" xmlns="http://www.w3.org/2000/svg">
<path d="M17.44 6H6.01232C4.33881 6 3 7.3389 3 9.01252V15.5157C3 17.1893 4.33881 18.5282 6.01232 18.5282H6.92079V22.3537L11.0807 18.5282H17.44C19.1135 18.5282 20.4523 17.1893 20.4523 15.5157V9.06033C20.4523 7.38671 19.1135 6 17.44 6ZM14.7624 10.208H14.1408C14.0452 10.973 13.6626 12.4554 12.4195 13.8421C12.9454 14.3203 13.6148 14.7506 14.3799 14.9419C14.6189 14.9897 14.8102 15.2766 14.7146 15.5157C14.6667 15.7548 14.4755 15.8983 14.2364 15.8983C14.1886 15.8983 14.1408 15.8983 14.1408 15.8983C13.1367 15.6592 12.3716 15.1332 11.7501 14.5594C11.1763 15.0375 10.4591 15.5157 9.55059 15.8983C9.50278 15.9461 9.45496 15.9461 9.35933 15.9461C9.16807 15.9461 8.97682 15.8504 8.929 15.6592C8.83337 15.4201 8.929 15.1332 9.16807 15.0375C9.93311 14.7506 10.5547 14.3203 11.0328 13.8899C10.0766 12.7423 9.64622 11.5469 9.64622 11.4512C9.55059 11.2121 9.69403 10.9252 9.93311 10.8296C10.1722 10.734 10.4591 10.8774 10.5547 11.1165C10.5547 11.1165 10.9372 12.1685 11.7501 13.1727C12.7063 12.0728 13.0411 10.8774 13.1845 10.208H8.73774C8.45086 10.208 8.2596 9.96887 8.2596 9.72978C8.2596 9.49069 8.45086 9.2516 8.73774 9.2516H11.2719V8.86906C11.2719 8.62997 11.511 8.39088 11.7501 8.39088C12.0369 8.39088 12.2282 8.62997 12.2282 8.86906V9.2516H14.7624C15.0493 9.2516 15.2405 9.49069 15.2405 9.72978C15.2405 9.96887 15.0493 10.208 14.7624 10.208Z" fill="#FF7E00"/>
<path d="M25.3773 16.7127L25.7598 18.3385H23.2734L23.656 16.7127C23.7038 16.5692 23.8472 16.4258 23.9907 16.4258H25.0426C25.2338 16.4736 25.3295 16.5692 25.3773 16.7127Z" fill="#FF7E00"/>
<path d="M28.8687 12.6465H21.0271V16.1372C21.0271 17.8108 19.6883 19.1497 18.0148 19.1497H14.4287V22.1622C14.4287 23.8358 15.7675 25.1747 17.441 25.1747H18.3495V29.0001L22.5094 25.1747H28.8687C30.5422 25.1747 31.881 23.8358 31.881 22.1622V15.659C31.8332 13.9854 30.4944 12.6465 28.8687 12.6465ZM27.0996 21.8753C27.0517 21.8753 27.0039 21.8753 27.0039 21.8753C26.7649 21.8753 26.5736 21.7318 26.5258 21.4928L25.9998 19.2931H23.0353L22.5094 21.4928C22.4616 21.7318 22.1747 21.9231 21.9356 21.8753C21.6965 21.8275 21.5053 21.5406 21.5531 21.3015L22.7006 16.5197C22.8441 15.9459 23.37 15.5155 23.9916 15.5155H25.0435C25.6651 15.5155 26.1911 15.9459 26.2867 16.5197L27.4343 21.3015C27.5299 21.5406 27.3864 21.8275 27.0996 21.8753Z" fill="#FF7E00"/>
</svg>
