<svg width="35" height="35" viewBox="0 0 35 35" fill="none" xmlns="http://www.w3.org/2000/svg">
<path d="M32 24.9002V27.8002C32 29.3952 30.695 30.7002 29.1 30.7002H26.2C24.605 30.7002 23.3 29.3952 23.3 27.8002V24.9002C23.3 23.3052 24.605 22.0002 26.2 22.0002H26.5625L26.565 20.1001C26.565 19.0996 25.753 18.2876 24.7525 18.2876H10.2525C9.25203 18.2876 8.44003 19.0996 8.44003 20.1001L8.4375 22.0002H8.8C10.395 22.0002 11.7 23.3052 11.7 24.9002V27.8002C11.7 29.3952 10.395 30.7002 8.8 30.7002H5.9C4.305 30.7002 3 29.3952 3 27.8002V24.9002C3 23.3052 4.305 22.0002 5.9 22.0002H6.2625L6.26503 20.1001C6.26503 17.8961 8.04853 16.1126 10.2525 16.1126H16.415V13.7H16.0525C14.4575 13.7 13.1525 12.395 13.1525 10.8V7.9C13.1525 6.305 14.4575 5 16.0525 5H18.9525C20.5475 5 21.8525 6.305 21.8525 7.9V10.8C21.8525 12.395 20.5475 13.7 18.9525 13.7H18.59V16.1126H24.7525C26.9565 16.1126 28.74 17.8961 28.74 20.1001L28.7375 22.0002H29.1C30.695 22.0002 32 23.3052 32 24.9002Z" fill="#FF7E00"/>
</svg>
