<svg width="35" height="35" viewBox="0 0 35 35" fill="none" xmlns="http://www.w3.org/2000/svg">
<path d="M18.5029 5C18.6413 4.99791 18.7789 5.0231 18.9072 5.07324C18.9164 5.07684 18.9255 5.08112 18.9346 5.08496C18.9358 5.08545 18.9372 5.08642 18.9385 5.08691C19.0667 5.13709 19.1833 5.21219 19.2812 5.30664C19.379 5.40102 19.4567 5.51304 19.5088 5.63672C19.5609 5.76055 19.5868 5.89368 19.585 6.02734V8.02734C19.585 8.43173 19.8338 8.77999 20.1914 8.9375C20.3137 8.98675 20.4481 9.01367 20.5889 9.01367C21.1598 9.01352 21.623 8.56558 21.623 8.01367V7.01367H21.6543V6.02734C21.6506 5.76262 21.7555 5.50733 21.9463 5.31738C22.1372 5.12734 22.3988 5.01781 22.6729 5.01367C22.811 5.01164 22.9481 5.03689 23.0762 5.08691C23.2045 5.13709 23.3219 5.21212 23.4199 5.30664C23.5176 5.40101 23.5954 5.51306 23.6475 5.63672C23.6996 5.76055 23.7255 5.89368 23.7236 6.02734V8.02734C23.7236 8.57932 24.1867 9.02731 24.7578 9.02734C25.3289 9.02734 25.793 8.57934 25.793 8.02734V6.02734C25.7893 5.76259 25.8941 5.50734 26.085 5.31738C26.2758 5.12744 26.5367 5.01791 26.8105 5.01367C26.9489 5.01158 27.0866 5.0368 27.2148 5.08691C27.3432 5.13709 27.4596 5.21212 27.5576 5.30664C27.6555 5.40102 27.733 5.513 27.7852 5.63672C27.8373 5.76055 27.8632 5.89367 27.8613 6.02734V8.02734C27.8613 8.57934 28.3254 9.02734 28.8965 9.02734C29.4675 9.02728 29.9307 8.5793 29.9307 8.02734V7.02734H32V27.0273C32 28.1323 31.0739 29.0273 29.9307 29.0273H13.377C13.3411 29.0273 13.3376 29.023 13.3633 29.0137H5.06934C3.92608 29.0137 3 28.1187 3 27.0137V7.01367H5.06934V6.01367C5.06572 5.74901 5.17057 5.49363 5.36133 5.30371C5.55227 5.11367 5.81385 5.00414 6.08789 5C6.22624 4.99794 6.36392 5.02309 6.49219 5.07324C6.62043 5.12342 6.73703 5.1985 6.83496 5.29297C6.93282 5.38744 7.01038 5.50019 7.0625 5.62402C7.11449 5.7477 7.1405 5.88019 7.13867 6.01367V8.01367C7.13867 8.56559 7.60186 9.01354 8.17285 9.01367C8.74396 9.01367 9.20801 8.56567 9.20801 8.01367V6.01367C9.20439 5.74897 9.30919 5.49364 9.5 5.30371C9.69094 5.11367 9.95252 5.00414 10.2266 5C10.3649 4.99796 10.5026 5.02311 10.6309 5.07324C10.759 5.12342 10.8757 5.19854 10.9736 5.29297C11.0714 5.38742 11.1491 5.50023 11.2012 5.62402C11.2531 5.74768 11.2792 5.88021 11.2773 6.01367V8.01367C11.2773 8.56565 11.7404 9.01363 12.3115 9.01367C12.8826 9.01367 13.3467 8.56567 13.3467 8.01367V6.01367C13.3431 5.74896 13.4478 5.49364 13.6387 5.30371C13.8295 5.11381 14.0904 5.00424 14.3643 5C14.5026 4.99791 14.6403 5.02315 14.7686 5.07324C14.7784 5.07708 14.7882 5.08181 14.7979 5.08594L14.7998 5.08691C14.9281 5.13709 15.0446 5.21215 15.1426 5.30664C15.2403 5.40102 15.318 5.51303 15.3701 5.63672C15.4222 5.76055 15.4481 5.89368 15.4463 6.02734V8.02734C15.4463 8.43123 15.6949 8.77874 16.0518 8.93652C16.1745 8.98612 16.309 9.01367 16.4502 9.01367C17.0213 9.01362 17.4844 8.56564 17.4844 8.01367V6.01367C17.4808 5.74896 17.5865 5.49364 17.7773 5.30371C17.9682 5.11382 18.229 5.0042 18.5029 5ZM8.17285 24.0137C7.60203 24.0138 7.13894 24.462 7.13867 25.0137C7.13867 25.5656 7.60186 26.0135 8.17285 26.0137H20.5889C21.1598 26.0135 21.623 25.5656 21.623 25.0137C21.6228 24.462 21.1597 24.0138 20.5889 24.0137H8.17285ZM8.17285 20.0137C7.60203 20.0138 7.13894 20.462 7.13867 21.0137C7.13867 21.5656 7.60186 22.0135 8.17285 22.0137H24.7275C25.2984 22.0134 25.7617 21.5655 25.7617 21.0137C25.7614 20.462 25.2983 20.0139 24.7275 20.0137H8.17285ZM8.17285 16.0137C7.60203 16.0138 7.13894 16.462 7.13867 17.0137C7.13867 17.5656 7.60186 18.0135 8.17285 18.0137H22.6582C23.2291 18.0135 23.6924 17.5655 23.6924 17.0137C23.6921 16.462 23.229 16.0139 22.6582 16.0137H8.17285ZM8.17285 12.0137C7.60203 12.0138 7.13894 12.462 7.13867 13.0137C7.13867 13.5656 7.60186 14.0135 8.17285 14.0137H26.7959C27.367 14.0137 27.8311 13.5657 27.8311 13.0137C27.8309 12.4618 27.3669 12.0137 26.7959 12.0137H8.17285ZM28.3584 12.0791L28.3789 12.0137L28.0547 11.9873L28.3584 12.0791Z" fill="#FF7E00"/>
</svg>
