<svg width="32" height="32" viewBox="0 0 32 32" fill="none" xmlns="http://www.w3.org/2000/svg">
<path opacity="0.5" d="M15.7501 15.7491C18.2352 15.7491 20.2501 13.7343 20.2501 11.249C20.2501 8.76375 18.2352 6.74902 15.7501 6.74902C13.2647 6.74902 11.25 8.76375 11.25 11.249C11.25 13.7343 13.2647 15.7491 15.7501 15.7491Z" stroke="#FF7E00" stroke-width="1.5"/>
<path opacity="0.5" d="M24.7045 27.75C24.4659 23.4128 23.1379 20.25 15.7507 20.25C8.36354 20.25 7.03559 23.4128 6.79688 27.75" stroke="#FF7E00" stroke-width="1.5" stroke-linecap="round"/>
<path d="M15.75 30.7501C24.0343 30.7501 30.75 24.0344 30.75 15.7501C30.75 7.46576 24.0343 0.75 15.75 0.75C7.46575 0.75 0.75 7.46576 0.75 15.7501C0.75 24.0344 7.46575 30.7501 15.75 30.7501Z" stroke="#FF7E00" stroke-width="1.5"/>
</svg>
