<?xml version="1.0" encoding="UTF-8"?>
<svg id="Layer_1" data-name="Layer 1" xmlns="http://www.w3.org/2000/svg" viewBox="0 0 65 65">
  <defs>
    <style>
      .cls-1 {
        fill: #f9bb88;
      }

      .cls-1, .cls-2 {
        stroke-width: 0px;
      }

      .cls-2 {
        fill: #f7931a;
      }
    </style>
  </defs>
  <path class="cls-2" d="M55.5,4.5h-1.08c-1.38-2.39-3.96-4-6.92-4h-30c-2.96,0-5.55,1.61-6.92,4h-1.08C5.09,4.5,1.5,8.09,1.5,12.5v44c0,4.41,3.59,8,8,8h46c4.41,0,8-3.59,8-8V12.5c0-4.41-3.59-8-8-8ZM48.5,55.5H16.5c-3.86,0-7-3.14-7-7s3.14-7,7-7h32c3.86,0,7,3.14,7,7s-3.14,7-7,7ZM48.5,36.5H16.5c-3.86,0-7-3.14-7-7s3.14-7,7-7h32c3.86,0,7,3.14,7,7s-3.14,7-7,7Z"/>
  <path class="cls-1" d="M13.5,29.5c0,1.66,1.34,3,3,3h32c1.66,0,3-1.34,3-3s-1.34-3-3-3H16.5c-1.66,0-3,1.34-3,3Z"/>
  <path class="cls-1" d="M13.5,48.5c0,1.66,1.34,3,3,3h32c1.66,0,3-1.34,3-3s-1.34-3-3-3H16.5c-1.66,0-3,1.34-3,3Z"/>
</svg>
