<?xml version="1.0" encoding="UTF-8"?>
<svg id="Layer_1" data-name="Layer 1" xmlns="http://www.w3.org/2000/svg" xmlns:xlink="http://www.w3.org/1999/xlink" viewBox="0 0 65 65">
  <defs>
    <style>
      .cls-1 {
        fill: #f9bb88;
      }

      .cls-1, .cls-2, .cls-3 {
        stroke-width: 0px;
      }

      .cls-4 {
        clip-path: url(#clippath);
      }

      .cls-2 {
        fill: none;
      }

      .cls-5 {
        clip-path: url(#clippath-1);
      }

      .cls-3 {
        fill: #f7931a;
      }
    </style>
    <clipPath id="clippath">
      <path class="cls-2" d="M31.28,46.21c-3.53,0-6.4,2.87-6.4,6.4v9.75c0,1.18.96,2.13,2.13,2.13h10.97c1.18,0,2.13-.96,2.13-2.13v-9.75c0-3.53-2.87-6.4-6.4-6.4h-2.44Z"/>
    </clipPath>
    <clipPath id="clippath-1">
      <path class="cls-2" d="M43.17,62.62v-10.04c0-5.2-4.75-9.41-9.95-9.41h-1.43c-5.2,0-9.95,4.21-9.95,9.41v10.04c0,.66.11,1.29.32,1.88h-4.71c-5.2,0-9.41-4.21-9.41-9.41v-28.79l-4.41,3.86c-.78.68-1.97.61-2.66-.18-.68-.78-.61-1.97.18-2.66L31.26.97c.71-.62,1.77-.62,2.48,0l30.12,26.35c.78.68.86,1.87.18,2.66s-1.87.86-2.66.18l-4.41-3.86v28.79c0,5.2-4.21,9.41-9.41,9.41h-4.71c.21-.59.32-1.22.32-1.88h0Z"/>
    </clipPath>
  </defs>
  <g class="cls-4">
    <rect class="cls-1" x="9.64" y="30.98" width="45.71" height="48.76"/>
  </g>
  <g class="cls-5">
    <rect class="cls-3" x="-14.74" y="-14.74" width="94.48" height="94.48"/>
  </g>
</svg>
