<?xml version="1.0" encoding="UTF-8"?>
<svg id="Layer_1" data-name="Layer 1" xmlns="http://www.w3.org/2000/svg" xmlns:xlink="http://www.w3.org/1999/xlink" viewBox="0 0 65 65">
  <defs>
    <style>
      .cls-1 {
        fill: #f9bb88;
      }

      .cls-1, .cls-2, .cls-3 {
        stroke-width: 0px;
      }

      .cls-4 {
        clip-path: url(#clippath);
      }

      .cls-2 {
        fill: none;
      }

      .cls-5 {
        clip-path: url(#clippath-1);
      }

      .cls-3, .cls-6 {
        fill: #f7931a;
      }
    </style>
    <clipPath id="clippath">
      <path class="cls-2" d="M-35.83,62.62v-10.04c0-5.2-4.75-9.41-9.95-9.41h-1.43c-5.2,0-9.95,4.21-9.95,9.41v10.04c0,.66.11,1.29.32,1.88h-4.71c-5.2,0-9.41-4.21-9.41-9.41v-28.79l-4.41,3.86c-.78.68-1.97.61-2.66-.18-.68-.78-.61-1.97.18-2.66L-47.74.97c.71-.62,1.77-.62,2.48,0L-15.14,27.32c.78.68.86,1.87.18,2.66s-1.87.86-2.66.18l-4.41-3.86v28.79c0,5.2-4.21,9.41-9.41,9.41h-4.71c.21-.59.32-1.22.32-1.88h0Z"/>
    </clipPath>
    <clipPath id="clippath-1">
      <path class="cls-3" d="M134.73,21.91v30.69c0,6.85-5.55,12.4-12.4,12.4h-34.73c-6.85,0-12.4-5.55-12.4-12.4V17.87c0-6.85,5.55-12.4,12.4-12.4h29.89l-16.22,16.22c-1.07,1.07-1.69,2.51-1.74,4.02l-.28,8.7c-.11,3.44,2.7,6.25,6.14,6.14l8.7-.28c1.51-.05,2.95-.67,4.02-1.74l16.62-16.62h0Z"/>
    </clipPath>
  </defs>
  <g class="cls-4">
    <rect class="cls-3" x="-93.74" y="-14.74" width="94.48" height="94.48"/>
  </g>
  <g>
    <path class="cls-3" d="M23.16,35.13c-.39.39-.62.94-.62,1.5,0,1.17.95,2.11,2.12,2.11.04,0,.09,0,.13,0-.63-1.21-1.08-2.53-1.31-3.93l-.32.32Z"/>
    <path class="cls-3" d="M40.82,26.32s-.31,0-.36,0c.63,1.21,1.08,2.53,1.31,3.93l.34-.34c.39-.39.62-.94.62-1.5,0-1.1-.84-2-1.91-2.11Z"/>
    <path class="cls-3" d="M32.5.5C14.83.5.5,14.83.5,32.5s14.33,32,32,32,32-14.33,32-32S50.17.5,32.5.5ZM49.77,37.61l-4.31,4.31c-2.41,2.41-5.76,3.8-9.17,3.8-.71,0-1.41-.06-2.09-.17l-1.15.98c-2.35,1.99-5.33,3.08-8.4,3.08-7.16,0-12.98-5.82-12.98-12.98,0-3.42,1.38-6.76,3.8-9.17l4.31-4.31c2.41-2.41,5.76-3.8,9.17-3.8.71,0,1.41.06,2.09.17l1.14-.97c2.34-1.99,5.32-3.09,8.4-3.09,7.15,0,12.98,5.82,12.98,12.98,0,3.41-1.38,6.76-3.8,9.17Z"/>
  </g>
  <path class="cls-1" d="M40.6,22.83c-1.01,0-1.98.27-2.84.77-.96-.97-2.07-1.78-3.3-2.39,1.71-1.45,3.88-2.25,6.14-2.25,5.24,0,9.48,4.24,9.48,9.48,0,2.52-1,4.93-2.78,6.7l-4.31,4.31c-1.78,1.78-4.19,2.78-6.7,2.78-5.24,0-9.48-4.24-9.48-9.48,0-.09,0-.18,0-.27.03-1.07.92-1.92,1.99-1.88,1.07.03,1.92.92,1.88,1.99v.16c0,3.1,2.51,5.61,5.61,5.61,1.48,0,2.91-.59,3.96-1.64l4.31-4.31c1.05-1.05,1.64-2.48,1.64-3.96,0-3.1-2.51-5.61-5.61-5.61h-.01ZM31.85,27.51c-.12-.05-.23-.12-.33-.19-.76-.39-1.64-.62-2.55-.62-1.48,0-2.91.59-3.96,1.64l-4.31,4.31c-1.05,1.05-1.64,2.48-1.64,3.96,0,3.1,2.51,5.61,5.61,5.61,1,0,1.98-.27,2.83-.76.96.97,2.07,1.78,3.31,2.39-1.71,1.45-3.88,2.25-6.14,2.25-5.24,0-9.48-4.24-9.48-9.48,0-2.52,1-4.93,2.78-6.7l4.31-4.31c1.78-1.78,4.19-2.78,6.7-2.78,5.25,0,9.48,4.28,9.48,9.51v.24c-.02,1.07-.92,1.92-1.99,1.89-1.07-.02-1.92-.92-1.89-1.99v-.14c0-2.04-1.09-3.84-2.72-4.82h0Z"/>
  <g>
    <path class="cls-6" d="M134.73,21.91v30.69c0,6.85-5.55,12.4-12.4,12.4h-34.73c-6.85,0-12.4-5.55-12.4-12.4V17.87c0-6.85,5.55-12.4,12.4-12.4h29.89l-16.22,16.22c-1.07,1.07-1.69,2.51-1.74,4.02l-.28,8.7c-.11,3.44,2.7,6.25,6.14,6.14l8.7-.28c1.51-.05,2.95-.67,4.02-1.74l16.62-16.62h0Z"/>
    <g class="cls-5">
      <rect class="cls-3" x="55.36" y="-14.37" width="99.21" height="99.21"/>
    </g>
  </g>
</svg>