<?xml version="1.0" encoding="UTF-8"?>
<svg id="Layer_1" data-name="Layer 1" xmlns="http://www.w3.org/2000/svg" xmlns:xlink="http://www.w3.org/1999/xlink" viewBox="0 0 65 65">
  <defs>
    <style>
      .cls-1, .cls-2 {
        stroke-width: 0px;
      }

      .cls-1, .cls-3 {
        fill: #f9bb88;
      }

      .cls-4 {
        clip-path: url(#clippath);
      }

      .cls-5 {
        clip-path: url(#clippath-1);
      }

      .cls-2, .cls-6 {
        fill: #f7931a;
      }
    </style>
    <clipPath id="clippath">
      <path class="cls-2" d="M59.73,21.91v30.69c0,6.85-5.55,12.4-12.4,12.4H12.6c-6.85,0-12.4-5.55-12.4-12.4V17.87C.2,11.02,5.75,5.47,12.6,5.47h29.89l-16.22,16.22c-1.07,1.07-1.69,2.51-1.74,4.02l-.28,8.7c-.11,3.44,2.7,6.25,6.14,6.14l8.7-.28c1.51-.05,2.95-.67,4.02-1.74l16.62-16.62h0Z"/>
    </clipPath>
    <clipPath id="clippath-1">
      <path class="cls-1" d="M62.48,2.32c-3.1-3.1-8.13-3.1-11.23,0l-22.17,22.17c-.36.36-.56.84-.58,1.34l-.28,8.7c-.04,1.15.9,2.08,2.05,2.05l8.7-.28c.5-.02.98-.22,1.34-.58l22.17-22.17c3.1-3.1,3.1-8.13,0-11.22h0Z"/>
    </clipPath>
  </defs>
  <g>
    <path class="cls-6" d="M59.73,21.91v30.69c0,6.85-5.55,12.4-12.4,12.4H12.6c-6.85,0-12.4-5.55-12.4-12.4V17.87C.2,11.02,5.75,5.47,12.6,5.47h29.89l-16.22,16.22c-1.07,1.07-1.69,2.51-1.74,4.02l-.28,8.7c-.11,3.44,2.7,6.25,6.14,6.14l8.7-.28c1.51-.05,2.95-.67,4.02-1.74l16.62-16.62h0Z"/>
    <g class="cls-4">
      <rect class="cls-2" x="-19.64" y="-14.37" width="99.21" height="99.21"/>
    </g>
  </g>
  <g>
    <path class="cls-3" d="M62.48,2.32c-3.1-3.1-8.13-3.1-11.23,0l-22.17,22.17c-.36.36-.56.84-.58,1.34l-.28,8.7c-.04,1.15.9,2.08,2.05,2.05l8.7-.28c.5-.02.98-.22,1.34-.58l22.17-22.17c3.1-3.1,3.1-8.13,0-11.22h0Z"/>
    <g class="cls-5">
      <rect class="cls-1" x="8.38" y="-19.84" width="76.27" height="76.27"/>
    </g>
  </g>
</svg>