<?xml version="1.0" encoding="UTF-8"?>
<svg id="Layer_1" data-name="Layer 1" xmlns="http://www.w3.org/2000/svg" xmlns:xlink="http://www.w3.org/1999/xlink" viewBox="0 0 65 65">
  <defs>
    <style>
      .cls-1, .cls-2 {
        stroke-width: 0px;
      }

      .cls-1, .cls-3 {
        fill: #f9bb88;
      }

      .cls-4 {
        clip-path: url(#clippath);
      }

      .cls-5 {
        clip-path: url(#clippath-1);
      }

      .cls-2, .cls-6 {
        fill: #f7931a;
      }
    </style>
    <clipPath id="clippath">
      <path class="cls-2" d="M-13.27,21.91v30.69c0,6.85-5.55,12.4-12.4,12.4h-34.73c-6.85,0-12.4-5.55-12.4-12.4V17.87c0-6.85,5.55-12.4,12.4-12.4h29.89l-16.22,16.22c-1.07,1.07-1.69,2.51-1.74,4.02l-.28,8.7c-.11,3.44,2.7,6.25,6.14,6.14l8.7-.28c1.51-.05,2.95-.67,4.02-1.74L-13.27,21.91h0Z"/>
    </clipPath>
    <clipPath id="clippath-1">
      <path class="cls-1" d="M-10.52,2.32c-3.1-3.1-8.13-3.1-11.23,0l-22.17,22.17c-.36.36-.56.84-.58,1.34l-.28,8.7c-.04,1.15.9,2.08,2.05,2.05l8.7-.28c.5-.02.98-.22,1.34-.58L-10.52,13.55c3.1-3.1,3.1-8.13,0-11.22h0Z"/>
    </clipPath>
  </defs>
  <g>
    <g>
      <path class="cls-6" d="M-13.27,21.91v30.69c0,6.85-5.55,12.4-12.4,12.4h-34.73c-6.85,0-12.4-5.55-12.4-12.4V17.87c0-6.85,5.55-12.4,12.4-12.4h29.89l-16.22,16.22c-1.07,1.07-1.69,2.51-1.74,4.02l-.28,8.7c-.11,3.44,2.7,6.25,6.14,6.14l8.7-.28c1.51-.05,2.95-.67,4.02-1.74L-13.27,21.91h0Z"/>
      <g class="cls-4">
        <rect class="cls-2" x="-92.64" y="-14.37" width="99.21" height="99.21"/>
      </g>
    </g>
    <g>
      <path class="cls-3" d="M-10.52,2.32c-3.1-3.1-8.13-3.1-11.23,0l-22.17,22.17c-.36.36-.56.84-.58,1.34l-.28,8.7c-.04,1.15.9,2.08,2.05,2.05l8.7-.28c.5-.02.98-.22,1.34-.58L-10.52,13.55c3.1-3.1,3.1-8.13,0-11.22h0Z"/>
      <g class="cls-5">
        <rect class="cls-1" x="-64.62" y="-19.84" width="76.27" height="76.27"/>
      </g>
    </g>
  </g>
  <g>
    <path class="cls-2" d="M13.97,10.97c0-3.72,3.02-6.74,6.74-6.74h37.05c3.72,0,6.74,3.02,6.74,6.74v31.26h-10.11v-1.68c0-1.86-1.51-3.37-3.37-3.37h-6.74c-1.86,0-3.37,1.51-3.37,3.37v1.68h-13.59c1.15-1.98,1.8-4.28,1.8-6.74,0-7.44-6.03-13.47-13.47-13.47-.57,0-1.14.03-1.68.11v-11.16ZM35.55,54.03c-.54-2.55-1.72-4.85-3.38-6.74h32.33c0,3.72-3.02,6.74-6.74,6.74h-22.21Z"/>
    <g>
      <circle class="cls-1" cx="15.66" cy="35.5" r="8.42"/>
      <path class="cls-1" d="M.5,57.39c0-5.58,4.53-10.11,10.11-10.11h10.11c5.58,0,10.11,4.53,10.11,10.11,0,1.86-1.51,3.37-3.37,3.37H3.87c-1.86,0-3.37-1.51-3.37-3.37Z"/>
    </g>
  </g>
</svg>
