<svg width="32" height="35" viewBox="0 0 32 35" fill="none" xmlns="http://www.w3.org/2000/svg">
<path d="M26.982 13.5559V12.374C26.982 5.91885 21.9452 0.700195 15.7265 0.700195C9.50776 0.700195 4.47094 5.91885 4.47094 12.374V13.5559C4.47094 14.9742 4.07091 16.338 3.3072 17.5199L1.45249 20.3929C-0.238567 23.0113 1.05246 26.5934 3.97999 27.4117C11.6534 29.5755 19.745 29.5755 27.4184 27.4117C30.346 26.5753 31.637 23.0113 29.9459 20.3929L28.0912 17.5199C27.3457 16.338 26.9275 14.9742 26.9275 13.5559H26.982Z" stroke="#FF7E00" stroke-width="1.4"/>
<path opacity="0.5" d="M8.23535 29.0479C9.32636 31.9572 12.2721 34.0483 15.7269 34.0483C19.1818 34.0483 22.1275 31.9572 23.2185 29.0479" stroke="#FF7E00" stroke-width="1.4" stroke-linecap="round"/>
<path opacity="0.5" d="M15.7246 7.37305V14.0464" stroke="#FF7E00" stroke-width="1.4" stroke-linecap="round"/>
</svg>
