<?xml version="1.0" encoding="UTF-8"?>
<svg id="Layer_1" xmlns="http://www.w3.org/2000/svg" version="1.1" viewBox="0 0 640 640">
  <!-- Generator: Adobe Illustrator 30.0.0, SVG Export Plug-In . SVG Version: 2.1.1 Build 123)  -->
  <defs>
    <style>
      .st0 {
        fill: #f7931a;
      }
    </style>
  </defs>
  <path class="st0" d="M160,96c-35.3,0-64,28.7-64,64v320c0,35.3,28.7,64,64,64h320c35.3,0,64-28.7,64-64V160c0-35.3-28.7-64-64-64H160ZM296,408v-64h-64c-13.3,0-24-10.7-24-24s10.7-24,24-24h64v-64c0-13.3,10.7-24,24-24s24,10.7,24,24v64h64c13.3,0,24,10.7,24,24s-10.7,24-24,24h-64v64c0,13.3-10.7,24-24,24s-24-10.7-24-24Z"/>
</svg>