<svg width="30" height="30" viewBox="0 0 30 30" fill="none" xmlns="http://www.w3.org/2000/svg">
<path d="M16.5143 28.0638L17.4301 28.6054L18.1855 27.33L17.2697 26.7883L16.3539 26.2466L15.5985 27.5221L16.5143 28.0638ZM12.7301 26.7883L11.8143 27.33L12.5698 28.6054L13.4856 28.0638L14.4013 27.5221L13.6458 26.2466L12.7301 26.7883ZM16.5143 28.0638L15.5985 27.5221C15.3373 27.9632 14.6626 27.9632 14.4013 27.5221L13.4856 28.0638L12.5698 28.6054C13.6551 30.438 16.3446 30.438 17.4301 28.6054L16.5143 28.0638ZM12.9096 1.06348V2.12696H17.0903V1.06348V3.05359e-07H12.9096V1.06348ZM28.9358 12.901H27.8716V14.2938H28.9358H30V12.901H28.9358ZM1.06419 14.2938H2.12838V12.901H1.06419H3.05641e-07V14.2938H1.06419ZM1.06419 14.2938H3.05641e-07C3.05641e-07 15.9014 -0.000577349 17.1604 0.0687622 18.1761C0.138755 19.2012 0.283531 20.056 0.611408 20.8471L1.59458 20.44L2.57777 20.033C2.37523 19.5444 2.25481 18.9481 2.1922 18.0313C2.12894 17.1048 2.12838 15.9304 2.12838 14.2938H1.06419ZM9.13243 24.7266L9.15077 23.6633C7.40121 23.6332 6.48776 23.522 5.77283 23.2261L5.36558 24.2086L4.95833 25.1911C6.08379 25.6569 7.36477 25.7599 9.1141 25.7899L9.13243 24.7266ZM1.59458 20.44L0.611408 20.8471C1.42661 22.8137 2.99025 24.3764 4.95833 25.1911L5.36558 24.2086L5.77283 23.2261C4.32626 22.6272 3.17696 21.4786 2.57777 20.033L1.59458 20.44ZM28.9358 14.2938H27.8716C27.8716 15.9304 27.871 17.1048 27.8078 18.0313C27.7451 18.9481 27.6247 19.5444 27.4222 20.033L28.4054 20.44L29.3885 20.8471C29.7165 20.056 29.8612 19.2012 29.9311 18.1761C30.0005 17.1604 30 15.9014 30 14.2938H28.9358ZM20.8674 24.7266L20.8858 25.7899C22.6352 25.7599 23.9162 25.6569 25.0416 25.1911L24.6344 24.2086L24.2271 23.2261C23.5122 23.522 22.5987 23.6332 20.849 23.6633L20.8674 24.7266ZM28.4054 20.44L27.4222 20.033C26.8229 21.4786 25.6736 22.6272 24.2271 23.2261L24.6344 24.2086L25.0416 25.1911C27.0096 24.3764 28.5734 22.8137 29.3885 20.8471L28.4054 20.44ZM17.0903 1.06348V2.12696C19.3919 2.12696 21.0432 2.12808 22.331 2.25046C23.603 2.37131 24.4101 2.60291 25.0526 2.99635L25.6085 2.08958L26.1647 1.18282C25.1315 0.550168 23.9603 0.268711 22.5324 0.133042C21.1206 -0.00112384 19.3507 3.05359e-07 17.0903 3.05359e-07V1.06348ZM28.9358 12.901H30C30 10.6422 30.0011 8.87346 29.8668 7.46246C29.7311 6.03562 29.4494 4.86518 28.8163 3.83277L27.909 4.38844L27.0016 4.94411C27.3953 5.58615 27.627 6.39263 27.748 7.66377C27.8704 8.95075 27.8716 10.601 27.8716 12.901H28.9358ZM25.6085 2.08958L25.0526 2.99635C25.8469 3.48281 26.5148 4.15027 27.0016 4.94411L27.909 4.38844L28.8163 3.83277C28.1541 2.75274 27.2454 1.84468 26.1647 1.18282L25.6085 2.08958ZM12.9096 1.06348V3.05359e-07C10.6493 3.05359e-07 8.87938 -0.00112384 7.46743 0.133042C6.03964 0.268711 4.86842 0.550168 3.83532 1.18282L4.39136 2.08958L4.9474 2.99635C5.58988 2.60291 6.39689 2.37131 7.6689 2.25046C8.95672 2.12808 10.6081 2.12696 12.9096 2.12696V1.06348ZM1.06419 12.901H2.12838C2.12838 10.601 2.12949 8.95075 2.25195 7.66377C2.37288 6.39263 2.60463 5.58615 2.99834 4.94411L2.09097 4.38844L1.18361 3.83277C0.550521 4.86518 0.268875 6.03562 0.133115 7.46246C-0.0011246 8.87346 3.05641e-07 10.6422 3.05641e-07 12.901H1.06419ZM4.39136 2.08958L3.83532 1.18282C2.75456 1.84468 1.8459 2.75274 1.18361 3.83277L2.09097 4.38844L2.99834 4.94411C3.48514 4.15027 4.15303 3.48281 4.9474 2.99635L4.39136 2.08958ZM12.7301 26.7883L13.6458 26.2466C13.3631 25.7693 13.1143 25.3468 12.8721 25.0148C12.6168 24.6648 12.3232 24.3485 11.9156 24.1115L11.3806 25.0308L10.8455 25.9501C10.9085 25.9867 10.9967 26.0545 11.1521 26.2675C11.3206 26.4985 11.5111 26.818 11.8143 27.33L12.7301 26.7883ZM9.13243 24.7266L9.1141 25.7899C9.72637 25.8006 10.1129 25.8083 10.4073 25.8408C10.6819 25.8712 10.786 25.9156 10.8455 25.9501L11.3806 25.0308L11.9156 24.1115C11.5045 23.8725 11.0771 23.775 10.6415 23.7268C10.2257 23.6808 9.72351 23.6732 9.15077 23.6633L9.13243 24.7266ZM17.2697 26.7883L18.1855 27.33C18.4887 26.818 18.6793 26.4985 18.8478 26.2675C19.0031 26.0545 19.0913 25.9867 19.1544 25.9501L18.6193 25.0308L18.0843 24.1115C17.6767 24.3485 17.383 24.6648 17.1277 25.0148C16.8855 25.3468 16.6367 25.7693 16.3539 26.2466L17.2697 26.7883ZM20.8674 24.7266L20.849 23.6633C20.2764 23.6732 19.7742 23.6808 19.3584 23.7268C18.9229 23.775 18.4954 23.8725 18.0843 24.1115L18.6193 25.0308L19.1544 25.9501C19.2138 25.9156 19.318 25.8712 19.5925 25.8408C19.887 25.8083 20.2735 25.8006 20.8858 25.7899L20.8674 24.7266Z" fill="#FF7E00"/>
<path opacity="0.5" d="M9.42578 10.8115H20.5745" stroke="#FF7E00" stroke-width="1.4" stroke-linecap="round"/>
<path opacity="0.5" d="M9.42578 15.6855H17.0905" stroke="#FF7E00" stroke-width="1.4" stroke-linecap="round"/>
</svg>
